<svg xmlns="http://www.w3.org/2000/svg" xmlns:xlink="http://www.w3.org/1999/xlink" version="1.1" id="Layer_1" x="0px" y="0px" width="100px" height="100px" viewBox="0 0 100 100" enable-background="new 0 0 100 100" xml:space="preserve">
<polygon fill="#000000" points="55.484,38.439 20.801,38.439 20.801,29.95 59.095,29.95 59.229,34.922 "/>
<rect x="36.627" y="39.801" transform="matrix(0.7071 -0.7071 0.7071 0.7071 -13.5575 57.0585)" fill="#000000" width="50.94" height="10.188"/>
<rect x="82.218" y="14.587" transform="matrix(0.7071 -0.7071 0.7071 0.7071 11.6547 67.5005)" fill="#000000" width="10.188" height="10.188"/>
<polygon fill="#000000" points="36.952,62.974 34.962,72.03 44.019,70.04 "/>
<polygon fill="#000000" points="39.305,55.418 20.801,55.418 20.801,46.928 48.263,46.928 "/>
<rect x="20.801" y="63.136" fill="#000000" width="9.261" height="9.261"/>
<g>
	<polygon fill="#000000" points="70.135,82.912 10.001,82.912 10.001,17.292 70.135,17.292 70.135,24.722 75.621,19.167    75.621,11.807 4.516,11.807 4.516,88.329 75.621,88.329 75.621,43.61 70.135,49.026  "/>
</g>
</svg>